<svg id="e89e22fa-630d-4dee-8626-ee2532938ed2" data-name="eU5l4L" xmlns="http://www.w3.org/2000/svg" xmlns:xlink="http://www.w3.org/1999/xlink" viewBox="0 0 594.9 438.9">
  <defs>
    <linearGradient id="f600646b-df41-4d24-9ff6-c821ce9a9d9d" x1="321.35" y1="185.1" x2="321.35" y2="358.7" gradientTransform="matrix(1, 0, 0, -1, 0, 440)" gradientUnits="userSpaceOnUse">
      <stop offset="0.26" stop-color="#a639b2"/>
      <stop offset="0.95" stop-color="#792a82"/>
    </linearGradient>
    <linearGradient id="a9a7517f-f46d-4a97-9cb7-71839cb2eb89" x1="325.35" y1="97.4" x2="325.35" y2="295.38" xlink:href="#f600646b-df41-4d24-9ff6-c821ce9a9d9d"/>
    <linearGradient id="a2eaffca-df52-49fc-9f40-56cc36cc5207" x1="260.4" y1="33.3" x2="260.4" y2="233.2" xlink:href="#f600646b-df41-4d24-9ff6-c821ce9a9d9d"/>
  </defs>
  <g id="b8ed3996-3fe5-4745-9e7c-949293f31482" data-name="Layer 6">
    <g>
      <polygon points="253.8 0 253.2 0 0 438.7 16.1 438.7 594.9 438.9 594.9 0 254.1 0 253.8 0" fill="#a639b2"/>
      <g>
        <g>
          <path d="M490.7,118.5h-4.5l4.5-8V100.1h-4.4l4.3-7.7V82H458.3l-7,12.5V82H440L430,99.8h-5.3V82H413.5l-18.7,33.1v-.6l12.6-22.2V82H371.2l-20.6,36.4h-4.2l4.5-8V100h-4.4l4.3-7.7V81.9H318.5l-5.9,10.4a27.18,27.18,0,0,0-3.4-4.2,23.06,23.06,0,0,0-10.7-6,23.17,23.17,0,0,0-6.5-.8,24.87,24.87,0,0,0-9.6,1.8,22.12,22.12,0,0,0-7.6,5.1,25.91,25.91,0,0,0-3.9,5.3c.1-.2.2-.3.2-.5l-9.7,17.2,6.9,18.5H256.9l-2.4-7H236.6l-2.4,7H222.9l17.3-46.8L169.3,207.3l-17.3,47h11.3l3.9-7h16.4l2.4,7h11.4l4.7-8.3a15.37,15.37,0,0,0,1.7,1.9,21.21,21.21,0,0,0,7.6,5.1,24.13,24.13,0,0,0,9.8,1.9,22.79,22.79,0,0,0,7-1,23.38,23.38,0,0,0,6-2.7,24.72,24.72,0,0,0,4.9-4.2,19.42,19.42,0,0,0,3.1-4.4l5.3-9.3v20.9h32.3l20.6-36.5h12.4v36.5h10.9l18.7-33.1v33.1h11.2l10.2-18H369v18h11.2l7-12.5v12.5h32.3l70.9-125.4ZM283,96.2c-.3.3-.6.7-.9,1A9,9,0,0,0,283,96.2Zm-1.7,2.2c.2-.3.3-.5.5-.8A2.18,2.18,0,0,1,281.3,98.4Zm-10.6-4.3c-.3.6-.6,1.2-.9,1.9C270.1,95.3,270.4,94.7,270.7,94.1ZM240,112.2l5.5-15.7,5.5,15.7Zm-5.8,16.7,2.4-7h17.9l2.4,7h11.4l-6.9-18.5L250.9,82.1H240.1l-17.3,46.8Zm16.9-16.7h-11l5.5-15.7Z" fill="url(#f600646b-df41-4d24-9ff6-c821ce9a9d9d)"/>
          <g>
            <path d="M250.9,82.1,268.2,129H256.8l-2.4-7H236.5l-2.4,7H222.8l17.3-46.9Zm.2,30.1-5.5-15.7-5.5,15.7Z" fill="#fff"/>
            <path d="M282.2,127.7A22.5,22.5,0,0,1,269.7,115a26.39,26.39,0,0,1,.1-18.9,23.37,23.37,0,0,1,5-7.6,23.62,23.62,0,0,1,7.6-5.1,24.87,24.87,0,0,1,9.6-1.8,27.55,27.55,0,0,1,6.5.8,27,27,0,0,1,5.8,2.3,21.78,21.78,0,0,1,4.9,3.7,23.18,23.18,0,0,1,3.7,4.7l-9.8,6.2a12.59,12.59,0,0,0-4.4-5,11.63,11.63,0,0,0-6.6-1.8,11.91,11.91,0,0,0-5.1,1,12.56,12.56,0,0,0-4,2.8,12.91,12.91,0,0,0-2.6,4.2,14.4,14.4,0,0,0-.9,5.1,13.48,13.48,0,0,0,.9,5,12.46,12.46,0,0,0,2.6,4.1,12.14,12.14,0,0,0,3.9,2.8,11.91,11.91,0,0,0,5.1,1,11.14,11.14,0,0,0,7.1-2.2,13.74,13.74,0,0,0,4.3-5.5l10.3,5.5a24,24,0,0,1-3.7,5.3,27.92,27.92,0,0,1-4.9,4.2,20.42,20.42,0,0,1-6,2.7,26.3,26.3,0,0,1-7,1A24.27,24.27,0,0,1,282.2,127.7Z" fill="#fff"/>
            <path d="M350.8,82.1V92.5H329.6v7.7h21.2v10.4H329.6v8h21.2V129H318.4V82.1Z" fill="#fff"/>
            <path d="M371.1,92.4V82.1h36.2V92.4H394.7v36.5H383.8V92.4Z" fill="#fff"/>
            <path d="M424.7,110.9v18H413.5V82.1h11.2V99.9H440V82.1h11.2V129H440V111H424.7Z" fill="#fff"/>
            <path d="M490.7,82.1V92.5H469.5v7.7h21.2v10.4H469.5v8h21.2V129H458.3V82.1Z" fill="#fff"/>
          </g>
        </g>
        <g>
          <path d="M513,191.5,427.6,342.6H396V330.7l-6.7,11.9H357v-8.2l-4.6,8.2H340l-6.6-14h-.9l-7.9,14H313.4v-7l-4,7H298l-2.4-7H279.2l-3.9,7H264l17.3-46.8,85.4-151.1-17.3,46.8h11.3l2.4-7H381l2.4,7h11.4l-8.9-24.1,12.9-22.8v46.8H410v-14h8.8l6.6,14h12.3L429,174.5a15.06,15.06,0,0,0,5.5-5.7,16.76,16.76,0,0,0,2-8.1,19.13,19.13,0,0,0-.6-4.8l6.4-11.4h32.3v10.4l-4.3,7.7h.9l10.2-18.1h11.2v36.1H513Zm-94.9-24.1c2.4,0,4.2-.6,5.3-1.8a6.25,6.25,0,0,0,1.3-2v-.1a2.92,2.92,0,0,0,.2-.9.37.37,0,0,1,.1-.3,4.1,4.1,0,0,0,.1-1.1,6.11,6.11,0,0,0-1.7-4.5c-1.2-1.1-2.9-1.6-5.3-1.6h-8.2v12.4h8.2Zm-19.4-22.7h20.2a19.67,19.67,0,0,1,7.5,1.3,16.21,16.21,0,0,1,5.5,3.5,15.72,15.72,0,0,1,3.4,5.1,8.8,8.8,0,0,1,.5,1.5,18.57,18.57,0,0,1,.6,4.8,16.76,16.76,0,0,1-2,8.1,15.06,15.06,0,0,1-5.5,5.7l8.7,16.9H425.3l-6.6-14h-8.8v14H398.7Zm11.2,10.2v12.4h8.2c2.4,0,4.2-.6,5.3-1.8a6.25,6.25,0,0,0,1.3-2v-.1a2.92,2.92,0,0,0,.2-.9.37.37,0,0,1,.1-.3,4.1,4.1,0,0,0,.1-1.1,6.11,6.11,0,0,0-1.7-4.5c-1.2-1.1-2.9-1.6-5.3-1.6h-8.2Zm-32.3,19.9-5.5-15.7-5.5,15.7Zm-51.4-5.4h6.9a7.33,7.33,0,0,0,5.2-2,6.1,6.1,0,0,0,1.2-1.6c.1-.2.3-.5.4-.7V165a1.85,1.85,0,0,0,.2-.7.37.37,0,0,1,.1-.3c0-.2.1-.4.1-.6v-.3c0-.3.1-.6.1-.9a7.08,7.08,0,0,0-2.1-5.3,7.33,7.33,0,0,0-5.2-2h-6.9Zm23.3,1.6c-.1.1-.1.2-.2.3a8.34,8.34,0,0,1-.8,1.2c-.1.2-.2.3-.3.5a16.54,16.54,0,0,1-7,5.3,18.24,18.24,0,0,1-7.5,1.4h-7.5v11.7H315V144.6l-6.7,11.9a19.79,19.79,0,0,1,.9,5.5,17,17,0,0,1-1.3,6.7,19.2,19.2,0,0,1-3.6,5.6,17.26,17.26,0,0,1-5.7,3.8,18.24,18.24,0,0,1-7.5,1.4h-7.4v11.7H272.5V144.4l-12.9,22.8,8.9,24.1H257.1l-2.4-7H236.8l-2.4,7H223.1l17.3-46.8L155,295.6l-17.3,46.8H149l3.9-7h16.4l2.4,7h11.4l4-7v7h11.2l6.6-11.7h.8a19.66,19.66,0,0,0,7.5-1.4,19,19,0,0,0,5.7-3.8,15.17,15.17,0,0,0,2.6-3.5l8.2-14.5v35h11.2l6.6-11.7h.8a19.66,19.66,0,0,0,7.5-1.4,19,19,0,0,0,5.7-3.8,15.17,15.17,0,0,0,2.6-3.5Zm-.1,20.5,17.3-46.8h10.8l8.4,22.8,8.9,24.1H383.4l-2.4-7H363.1l-2.4,7H349.4ZM372,159.1l-5.5,15.7h11Zm-57-14.4h18.7a19.51,19.51,0,0,1,7.4,1.4,17.07,17.07,0,0,1,10.7,16.1,17,17,0,0,1-1.3,6.7,19.23,19.23,0,0,1-1.2,2.5,8.34,8.34,0,0,1-.8,1.2c-.1.2-.2.3-.3.5a16.54,16.54,0,0,1-7,5.3,18.24,18.24,0,0,1-7.5,1.4h-7.5v11.7H315Zm11.2,10.1v14.6h6.9a7.33,7.33,0,0,0,5.2-2,6.1,6.1,0,0,0,1.2-1.6c.1-.2.3-.5.4-.7V165a1.85,1.85,0,0,0,.2-.7.37.37,0,0,1,.1-.3c0-.2.1-.4.1-.6v-.3c0-.3.1-.6.1-.9a7.08,7.08,0,0,0-2.1-5.3,7.33,7.33,0,0,0-5.2-2h-6.9Zm-42.7,14.6h6.9a7.33,7.33,0,0,0,5.2-2,6.1,6.1,0,0,0,1.2-1.6c.1-.2.3-.5.4-.7V165a1.85,1.85,0,0,0,.2-.7.37.37,0,0,1,.1-.3c0-.2.1-.4.1-.6v-.3c0-.3.1-.6.1-.9a7.08,7.08,0,0,0-2.1-5.3,7.33,7.33,0,0,0-5.2-2h-6.9Zm-11.3-24.7H291a19.51,19.51,0,0,1,7.4,1.4,17.36,17.36,0,0,1,9.4,9.3,5,5,0,0,1,.4,1.3,19.79,19.79,0,0,1,.9,5.5,17,17,0,0,1-1.3,6.7,19.2,19.2,0,0,1-3.6,5.6,17.26,17.26,0,0,1-5.7,3.8,18.24,18.24,0,0,1-7.5,1.4h-7.4v11.7H272.4Zm11.3,10.1v14.6h6.9a7.33,7.33,0,0,0,5.2-2,6.1,6.1,0,0,0,1.2-1.6c.1-.2.3-.5.4-.7V165a1.85,1.85,0,0,0,.2-.7.37.37,0,0,1,.1-.3c0-.2.1-.4.1-.6v-.3c0-.3.1-.6.1-.9a7.08,7.08,0,0,0-2.1-5.3,7.33,7.33,0,0,0-5.2-2h-6.9Zm-32.4,20-5.5-15.7-5.5,15.7Zm-28.2,16.7,17.3-46.8H251l8.4,22.8,8.9,24.1H256.9l-2.4-7H236.6l-2.4,7H222.9Zm22.7-32.4-5.5,15.7h11Z" fill="url(#a9a7517f-f46d-4a97-9cb7-71839cb2eb89)"/>
          <g>
            <path d="M250.9,144.7l17.3,46.9H256.8l-2.4-7H236.5l-2.4,7H222.8l17.3-46.9Zm.2,30.1-5.5-15.7-5.5,15.7Z" fill="#fff"/>
            <path d="M291,144.7a19.51,19.51,0,0,1,7.4,1.4,17.26,17.26,0,0,1,5.7,3.8,16.58,16.58,0,0,1,3.7,5.6,17.16,17.16,0,0,1,1.3,6.8,16.68,16.68,0,0,1-1.3,6.7,17.09,17.09,0,0,1-9.3,9.5,18.24,18.24,0,0,1-7.5,1.4h-7.4v11.7H272.4V144.7Zm-7.5,24.7h6.9a7.33,7.33,0,0,0,5.2-2,6.93,6.93,0,0,0,2.1-5.3,7.08,7.08,0,0,0-2.1-5.3,7.33,7.33,0,0,0-5.2-2h-6.9Z" fill="#fff"/>
            <path d="M333.7,144.7a19.51,19.51,0,0,1,7.4,1.4,17.26,17.26,0,0,1,5.7,3.8,16.58,16.58,0,0,1,3.7,5.6,17.16,17.16,0,0,1,1.3,6.8,16.68,16.68,0,0,1-1.3,6.7,17.09,17.09,0,0,1-9.3,9.5,18.24,18.24,0,0,1-7.5,1.4h-7.4v11.7H315V144.7Zm-7.5,24.7h6.9a7.33,7.33,0,0,0,5.2-2,6.93,6.93,0,0,0,2.1-5.3,7.08,7.08,0,0,0-2.1-5.3,7.33,7.33,0,0,0-5.2-2h-6.9Z" fill="#fff"/>
            <path d="M377.5,144.7l17.3,46.9H383.4l-2.4-7H363.1l-2.4,7H349.4l17.3-46.9Zm.1,30.1-5.5-15.7-5.5,15.7Z" fill="#fff"/>
            <path d="M418.9,144.7a19.67,19.67,0,0,1,7.5,1.3,16.21,16.21,0,0,1,5.5,3.5,15.72,15.72,0,0,1,3.4,5.1,16.08,16.08,0,0,1,1.2,6.3,16.76,16.76,0,0,1-2,8.1,14.61,14.61,0,0,1-5.6,5.7l8.7,16.9H425.3l-6.6-14.1h-8.8v14.1H398.7V144.7Zm-9,22.7h8.2c2.4,0,4.2-.6,5.3-1.8a6.44,6.44,0,0,0,1.7-4.5,6.11,6.11,0,0,0-1.7-4.5c-1.2-1.1-2.9-1.6-5.3-1.6h-8.2Z" fill="#fff"/>
            <path d="M474.7,144.7v10.4H453.5v7.7h21.2v10.4H453.5v8h21.2v10.4H442.3V144.7Z" fill="#fff"/>
            <path d="M492.6,144.7v36.1H513v10.7H481.4V144.6h11.2Z" fill="#fff"/>
          </g>
        </g>
        <g>
          <path d="M381.5,217.8V207.5H345.3l-3.9,6.9a28.91,28.91,0,0,0-3.2-2.9,22.64,22.64,0,0,0-4.2-2.6,24.59,24.59,0,0,0-4.8-1.6,26.67,26.67,0,0,0-5.8-.5,21.7,21.7,0,0,0-6.9,1.1,15.73,15.73,0,0,0-5.4,3,13.11,13.11,0,0,0-3.5,4.6c.1-.3.3-.5.4-.8l-8.2,14.5v-3.5h-4.4l4.3-7.7V207.6H267.4l-18.7,33.1v-.6l12.6-22.2V207.6H225L139.3,359.2v10.3H152V406h11l18.7-33.1V406H214l4.5-7.9a27.55,27.55,0,0,0,3,2.9,21.48,21.48,0,0,0,4.6,3,23.93,23.93,0,0,0,5.7,2,30.18,30.18,0,0,0,7,.7,20.35,20.35,0,0,0,7.1-1.2,16.17,16.17,0,0,0,8.9-7.2l16.3-28.8h1.2V406h10.9l85.7-151.6V240.1Zm-63.4.8c0-.1.1-.1.1-.2C318.2,218.5,318.2,218.5,318.1,218.6Z" fill="url(#a2eaffca-df52-49fc-9f40-56cc36cc5207)"/>
          <g>
            <path d="M225,217.8V207.5h36.2v10.3H248.6v36.5H237.7V217.8Z" fill="#fff"/>
            <path d="M299.7,207.4v10.4H278.5v7.7h21.2v10.4H278.5v8h21.2v10.4H267.3V207.4Z" fill="#fff"/>
            <path d="M317.4,254.2a21.7,21.7,0,0,1-5.6-2,20.24,20.24,0,0,1-4.6-3,43.06,43.06,0,0,1-3.7-3.7l9.6-7.7a16.34,16.34,0,0,0,4.9,4.9,12.51,12.51,0,0,0,6.8,1.7,7,7,0,0,0,4.4-1.2,3.88,3.88,0,0,0,1.5-3.1,2.88,2.88,0,0,0-.6-1.9,4.2,4.2,0,0,0-1.8-1.3,24.55,24.55,0,0,0-3-1.1c-1.2-.3-2.6-.7-4.3-1.1s-3.4-.9-5.2-1.4a19.6,19.6,0,0,1-4.8-2.4,12,12,0,0,1-3.5-3.9,12.11,12.11,0,0,1-1.3-6,12,12,0,0,1,1.3-5.7,14.42,14.42,0,0,1,3.5-4.6,15.73,15.73,0,0,1,5.4-3,21.7,21.7,0,0,1,6.9-1.1,33.88,33.88,0,0,1,5.8.5,20.8,20.8,0,0,1,4.8,1.6,26.49,26.49,0,0,1,4.2,2.6,25.48,25.48,0,0,1,3.8,3.6l-9,7a13.08,13.08,0,0,0-4-4.1,11,11,0,0,0-5.9-1.4,5.72,5.72,0,0,0-4.2,1.3,3.89,3.89,0,0,0-1.3,2.9,2.41,2.41,0,0,0,.7,1.8,5.16,5.16,0,0,0,1.9,1.2,28.23,28.23,0,0,0,3,.9q1.8.45,3.9.9c1.8.4,3.5.9,5.3,1.4a20.29,20.29,0,0,1,4.9,2.4,11.55,11.55,0,0,1,3.6,4,12.64,12.64,0,0,1,1.4,6.2,15.13,15.13,0,0,1-1.3,6.1,13.47,13.47,0,0,1-3.7,4.8,18.17,18.17,0,0,1-5.6,3.2,20.35,20.35,0,0,1-7.1,1.2A22.87,22.87,0,0,1,317.4,254.2Z" fill="#fff"/>
            <path d="M345.3,217.8V207.5h36.2v10.3H368.9v36.5H358V217.8Z" fill="#fff"/>
          </g>
        </g>
      </g>
    </g>
  </g>
</svg>
